HIERARCHY
ROOT Hips
{
  OFFSET 5.70366 102.999 -1.77653
  CHANNELS 6 Xposition Yposition Zposition Zrotation Xrotation Yrotation
  JOINT RightUpLeg
  {
    OFFSET -8.9458 -8.66707 0.101652
    CHANNELS 3 Zrotation Xrotation Yrotation
    JOINT RightLeg
    {
      OFFSET 0 -44.4227 1.3727
      CHANNELS 3 Zrotation Xrotation Yrotation
      JOINT RightFoot
      {
        OFFSET 0.253549 -42.0924 -1.46059
        CHANNELS 3 Zrotation Xrotation Yrotation
        JOINT RightToes
        {
          OFFSET 0.04 -4.41509 8.4991
          CHANNELS 3 Zrotation Xrotation Yrotation
          End Site
          {
            OFFSET -0.08 -0.137448 9.77979
          }
        }
      }
    }
  }
  JOINT Spine
  {
    OFFSET 0 11.8905 0
    CHANNELS 3 Zrotation Xrotation Yrotation
    JOINT Spine1
    {
      OFFSET 0 25.6574 0.127663
      CHANNELS 3 Zrotation Xrotation Yrotation
      JOINT HEad
      {
        OFFSET 0 8.73416 0.011341
        CHANNELS 3 Zrotation Xrotation Yrotation
        End Site
        {
          OFFSET -0.29 12.7742 2.51395
        }
      }
      JOINT LeftShoulder1
      {
        OFFSET 8.99 -0.362252 -0.22
        CHANNELS 3 Zrotation Xrotation Yrotation
        JOINT LeftArm
        {
          OFFSET 10.2827 -0.00337999 0.322123
          CHANNELS 3 Zrotation Xrotation Yrotation
          JOINT LeftForeArm
          {
            OFFSET 26.2597 0.099144 -1.42434
            CHANNELS 3 Zrotation Xrotation Yrotation
            JOINT LeftHand
            {
              OFFSET 22.0902 0.085362 1.02216
              CHANNELS 3 Zrotation Xrotation Yrotation
              End Site
              {
                OFFSET 13.419 -0.6 1.50291
              }
            }
          }
        }
      }
      JOINT RightShoulder
      {
        OFFSET -8.99 -0.362252 -0.22
        CHANNELS 3 Zrotation Xrotation Yrotation
        JOINT RightArm
        {
          OFFSET -10.2827 -0.00338 0.322123
          CHANNELS 3 Zrotation Xrotation Yrotation
          JOINT RightForeArm
          {
            OFFSET -26.364 0.099144 -1.42434
            CHANNELS 3 Zrotation Xrotation Yrotation
            JOINT RightHand
            {
              OFFSET -22.0324 0.085362 1.02216
              CHANNELS 3 Zrotation Xrotation Yrotation
              End Site
              {
                OFFSET -13.3284 -0.6 1.50291
              }
            }
          }
        }
      }
    }
  }
  JOINT LeftUpLeg
  {
    OFFSET 8.9458 -8.66707 0.101652
    CHANNELS 3 Zrotation Xrotation Yrotation
    JOINT LeftLeg
    {
      OFFSET 0 -44.4227 1.3727
      CHANNELS 3 Zrotation Xrotation Yrotation
      JOINT LeftFoot
      {
        OFFSET -0.253549 -42.0924 -1.46059
        CHANNELS 3 Zrotation Xrotation Yrotation
        JOINT LeftToes
        {
          OFFSET -0.04 -4.41509 8.4991
          CHANNELS 3 Zrotation Xrotation Yrotation
          End Site
          {
            OFFSET 0.08 -0.047448 9.77979
          }
        }
      }
    }
  }
}
MOTION
Frames:	7
Frame Time:	0.0416667
-232.598 103.587 19.122 -2.05583 -2.7596 124.308 0.165549 -10.2082 1.38823 -0.63829 25.0364 -5.71588 -0.630254 -10.3447 -0.206772 0.0462048 0.000530891 0.662642 -0.748809 -0.972125 1.34932 -3.90265 1.9128 2.0187 15.3437 10.1256 -22.2571 -29.3744 -3.06087 12.2829 -40.765 -31.3988 -0.608455 -1.9174 54.163 -8.01451 1.78289 9.8161 -4.03374 39.143 0.268625 -3.57763 40.0761 -14.038 5.49397 -1.17988 33.3137 20.0497 0.589514 10.0053 3.40772 -3.38557 -5.95476 0.854971 1.93302 16.7634 12.0252 4.26244 -10.4826 0.155175 -1.31231e-009 8.7524e-006 -1.46495e-008 
-233.071 103.887 19.6009 -1.78685 -3.39695 118.657 0.890499 -6.8318 -0.351872 -0.89165 17.2612 -0.642314 -0.342122 -9.38467 -0.188422 0.0462048 0.000530891 0.662642 0.250607 -0.940058 1.41612 -3.48946 2.14367 2.05663 14.5378 9.35103 -17.9774 -29.2849 -2.98887 12.1031 -40.567 -31.91 -0.211572 -1.73319 54.6579 -7.59118 1.63685 9.82982 -3.70078 39.4637 0.229259 -3.66464 40.0363 -15.7469 5.58679 -1.48132 34.8376 19.5588 0.57098 9.98865 2.28662 -2.52383 -5.8302 1.34569 1.82509 16.2345 16.6768 2.92222 -10.317 0.115882 -1.31231e-009 8.7524e-006 -1.46495e-008 
-233.76 103.889 20.2075 -1.07147 -4.20445 114.704 2.06925 -5.64683 -1.08615 -0.621956 13.5649 3.73352 -2.5618 -8.00845 -0.182346 0.0462048 0.000530891 0.662642 1.67161 0.424062 1.03549 -2.87817 1.97616 1.60184 13.8279 8.10114 -14.4009 -29.4044 -2.9672 12.0153 -41.0372 -31.7444 -1.32339 -2.30462 54.953 -6.7973 2.28674 9.78319 -3.33223 39.379 0.343333 -3.41608 40.5134 -18.7376 5.93293 -1.4878 37.093 17.9459 0.502083 9.98262 2.18606 -0.942074 -7.14935 1.61103 1.48147 19.0318 20.0354 1.78142 -10.9428 0.102761 -1.31231e-009 8.7524e-006 -1.46495e-008 
-234.753 103.529 20.7986 -0.364426 -5.06466 112.272 2.62591 -6.61672 -1.68496 0.391603 14.5148 6.71538 -2.65185 -7.70816 -0.173256 0.0462048 0.000530891 0.662642 2.9267 2.69783 0.459079 -2.05656 1.24416 0.91583 13.1274 6.61881 -11.5019 -29.3149 -2.93397 11.943 -42.6552 -30.9955 -3.49847 -2.67932 53.8482 -6.7983 2.88483 9.74713 -2.78158 39.363 0.408933 -3.27315 40.1509 -20.2507 5.92834 -1.04524 37.5748 16.5643 0.467308 9.99034 2.97815 1.06205 -10.1635 1.58553 0.953149 25.1529 17.5363 1.96749 -11.8179 0.129188 -1.31231e-009 8.7524e-006 -1.46495e-008 
-235.653 103.262 21.2601 0.108197 -5.19846 110.456 2.4391 -7.7646 -2.41939 1.20855 16.2477 9.40439 -2.56486 -7.67582 -0.172255 0.0462048 0.000530891 0.662642 2.51073 4.33898 0.137181 -0.884592 1.02481 0.414346 12.9671 5.46891 -9.60695 -28.8505 -2.76173 11.5615 -45.2113 -30.4282 -5.94714 -2.08886 52.3321 -7.76589 2.7775 9.75794 -2.57249 39.7445 0.513633 -3.05137 38.8864 -20.5476 5.43428 -0.533071 37.4179 15.7928 0.385755 9.98862 3.29739 2.41681 -12.2474 0.659803 0.659413 29.7878 8.04013 2.97586 -13.0576 0.207697 -1.31231e-009 8.7524e-006 -1.46495e-008 
-236.195 103.265 21.4402 0.30842 -4.64402 108.245 2.27432 -8.36469 -2.22076 0.684685 17.1597 11.4754 -3.35774 -7.38529 -0.161605 0.0462048 0.000530891 0.662642 1.3418 4.88552 0.112747 -0.342501 1.19105 0.306121 13.3961 5.59405 -8.84991 -28.3007 -2.60589 11.2356 -47.0483 -29.7921 -7.84639 -1.64438 51.5731 -8.8199 2.50519 9.76946 -3.13347 39.8297 0.621948 -2.81896 38.6899 -21.4748 4.89282 -0.656738 38.828 15.1599 0.882628 10.009 2.27092 2.76082 -12.2526 -2.61832 0.475331 29.764 2.22876 3.05584 -14.5139 0.258765 -1.31231e-009 8.7524e-006 -1.46495e-008 
-236.482 103.412 21.2418 0.324879 -4.03186 105.488 2.34955 -8.41794 -0.92425 -0.687054 17.0636 13.0401 -2.95249 -6.96821 -0.149269 0.0462048 0.000530891 0.662642 1.06588 4.9962 0.185518 -1.14709 0.920476 0.529051 13.5247 7.09586 -8.08289 -28.0718 -2.63528 11.3693 -47.4032 -28.564 -9.18127 -2.05637 51.4821 -9.54283 2.62401 9.74618 -4.16229 39.5303 0.564059 -2.93835 39.3218 -22.2084 4.06674 -1.10922 40.0522 15.0539 1.98039 10.0435 0.800566 2.66645 -10.764 -6.02074 0.583148 26.4045 5.76392 2.18937 -14.314 0.201359 -1.31231e-009 8.7524e-006 -1.46495e-008 
